<svg width="44" height="27" viewBox="0 0 44 27" fill="none" xmlns="http://www.w3.org/2000/svg">
<path d="M0 18.403C0.165576 18.106 0.374346 18.0566 0.698299 18.2262C1.44699 18.6222 2.18128 19.0322 2.94437 19.4069C5.86479 20.8371 8.94185 21.9353 12.1158 22.6803C13.6166 23.0359 15.1353 23.3143 16.6656 23.5145C18.9318 23.8137 21.2186 23.9366 23.5046 23.8822C24.7572 23.8539 26.0098 23.7549 27.2552 23.6135C31.2988 23.1506 35.2562 22.132 39.0111 20.5876C39.2199 20.5028 39.4359 20.4462 39.6662 20.5028C40.1486 20.63 40.3141 21.139 39.9614 21.4855C39.7469 21.6792 39.5156 21.8542 39.2703 22.0086C37.0602 23.5004 34.6486 24.5821 32.1001 25.3951C30.3355 25.9537 28.5273 26.3698 26.6937 26.6394C25.4255 26.8302 24.1464 26.9435 22.8639 26.9788C22.8035 26.9824 22.7434 26.9895 22.6839 27H21.1649C21.1054 26.9895 21.0453 26.9824 20.9849 26.9788C20.7258 26.9647 20.4666 26.9576 20.2147 26.9505C18.9987 26.8964 17.7872 26.7713 16.5864 26.5758C14.6147 26.2602 12.677 25.7656 10.7984 25.0982C6.93401 23.7295 3.375 21.641 0.316754 18.9474C0.187173 18.8343 0.100785 18.6787 0 18.5444V18.403ZM11.3743 0.00706981L11.0648 0.0494892C10.0749 0.169481 9.13296 0.53707 8.32919 1.11705C8.15641 1.23724 7.99804 1.36449 7.81806 1.49882C7.80279 1.46768 7.79305 1.43421 7.78927 1.39984C7.76047 1.20896 7.73168 1.011 7.69568 0.82011C7.64529 0.494894 7.47971 0.353496 7.14856 0.353496H6.32068C5.82395 0.353496 5.73037 0.445404 5.73037 0.933228V15.7306C5.73037 15.8013 5.73037 15.872 5.73757 15.9427C5.75196 16.1548 5.88154 16.2891 6.09031 16.2962C6.59424 16.3032 7.10537 16.3032 7.60929 16.2962C7.81806 16.2962 7.94764 16.1548 7.96924 15.9427C7.97644 15.872 7.97644 15.8013 7.97644 15.7306V10.6119C8.05563 10.6756 8.09882 10.7109 8.13482 10.7463C9.42343 11.7997 10.9064 12.1461 12.5262 11.835C13.9948 11.5522 15.017 10.6685 15.6793 9.36764C16.1832 8.38492 16.392 7.33857 16.4208 6.2498C16.4568 5.04085 16.3344 3.8531 15.8377 2.72899C15.2258 1.34328 14.2107 0.431265 12.6774 0.120188C12.447 0.0706989 12.2094 0.0494892 11.9719 0.0141396C11.7703 0.0070697 11.5759 0.00706981 11.3743 0.00706981ZM7.96204 2.96936C7.95794 2.9231 7.96725 2.87663 7.98891 2.83535C8.01057 2.79406 8.04368 2.75964 8.08442 2.73606C9.07068 2.06441 10.1577 1.71092 11.3671 1.80283C12.4398 1.8806 13.3181 2.3967 13.7788 3.63394C14.0596 4.39042 14.1315 5.17518 14.1315 5.96701C14.1315 6.70228 14.074 7.42341 13.8436 8.1304C13.3541 9.63629 12.231 10.209 10.7768 10.1453C9.76898 10.1029 8.89071 9.72113 8.08442 9.16261C8.0442 9.13848 8.01151 9.10395 7.98993 9.06281C7.96834 9.02166 7.9587 8.97547 7.96204 8.9293C7.96924 7.93244 7.96204 6.94266 7.96204 5.9458C7.96204 4.94894 7.96924 3.96622 7.96204 2.96936ZM22.7703 0.00706981C22.6983 0.0141397 22.6263 0.0282797 22.5615 0.0353496C21.86 0.0644096 21.1631 0.161504 20.481 0.325216C20.0419 0.438335 19.6171 0.593873 19.1924 0.735271C18.9332 0.82011 18.8037 1.00393 18.8109 1.27965C18.8181 1.51296 18.8037 1.74627 18.8109 1.97958C18.8181 2.31893 18.962 2.41084 19.3004 2.326C19.8619 2.1846 20.4234 2.02907 20.9921 1.92302C21.8776 1.76041 22.7703 1.68971 23.6702 1.82404C24.1381 1.89474 24.5772 2.02907 24.8796 2.41791C25.1459 2.75727 25.2467 3.16025 25.2611 3.57738C25.2827 4.16418 25.2755 4.75098 25.2827 5.33779C25.281 5.37114 25.2761 5.40426 25.2683 5.43676C25.2323 5.42969 25.2035 5.43676 25.1747 5.42969C24.419 5.24671 23.648 5.13077 22.8711 5.08327C22.0576 5.04085 21.2513 5.09034 20.4738 5.35899C19.5452 5.67714 18.7965 6.22859 18.3573 7.1194C18.019 7.81225 17.9686 8.54753 18.0766 9.28987C18.2206 10.2797 18.7245 11.0432 19.6171 11.531C20.4738 11.9976 21.4025 12.0542 22.3455 11.9128C23.4326 11.7502 24.3973 11.2977 25.2467 10.6119C25.2815 10.5811 25.3202 10.555 25.3619 10.5342C25.4051 10.8028 25.4411 11.0573 25.4915 11.3119C25.5347 11.531 25.6715 11.6724 25.8802 11.6795C26.269 11.6866 26.6649 11.6866 27.0537 11.6795C27.1439 11.6788 27.2303 11.6438 27.2947 11.5818C27.3591 11.5198 27.3966 11.4358 27.3992 11.3472C27.4052 11.2814 27.4076 11.2153 27.4064 11.1493V3.65515C27.4099 3.34992 27.3882 3.04492 27.3416 2.74313C27.2048 1.83111 26.8089 1.0817 25.9738 0.593873C25.4915 0.311076 24.9588 0.169678 24.4044 0.0919091C24.1453 0.0565595 23.8861 0.0353496 23.627 0C23.3462 0.00706991 23.0582 0.00706981 22.7703 0.00706981ZM25.2899 9.03535C25.2926 9.07693 25.2841 9.11846 25.2651 9.15573C25.2461 9.19299 25.2174 9.22464 25.1819 9.24745C24.3757 9.82011 23.4902 10.2019 22.4895 10.3009C22.0792 10.3433 21.6688 10.3291 21.2801 10.1736C21.0665 10.0969 20.8743 9.97177 20.7192 9.80838C20.5641 9.64499 20.4504 9.44796 20.3874 9.23331C20.2447 8.78722 20.2422 8.30925 20.3802 7.86174C20.5602 7.27494 20.9849 6.94266 21.5609 6.75884C22.1389 6.58766 22.7465 6.53472 23.3462 6.6033C23.9509 6.65279 24.5412 6.76591 25.1459 6.84368C25.2611 6.85782 25.2971 6.91438 25.2971 7.02749C25.2899 7.36685 25.2971 7.69914 25.2971 8.03849C25.2971 8.37785 25.2827 8.70306 25.2899 9.03535ZM44 18.1838C43.928 17.8303 43.6544 17.696 43.3449 17.597C42.8542 17.4454 42.3465 17.3529 41.8331 17.3213C40.8906 17.2423 39.9415 17.2874 39.0111 17.4556C37.9817 17.6465 37.0026 17.9717 36.1315 18.5585C36.0278 18.624 35.9375 18.7079 35.8652 18.806C35.84 18.8482 35.8238 18.8951 35.8176 18.9437C35.8114 18.9924 35.8153 19.0417 35.8292 19.0888C35.858 19.1948 35.9804 19.2231 36.0883 19.216C36.1412 19.2172 36.1942 19.2148 36.2467 19.209C36.8082 19.1524 37.3626 19.0888 37.9241 19.0322C38.7448 18.9544 39.5726 18.9049 40.3933 18.9686C40.7446 18.9972 41.092 19.0612 41.43 19.1595C41.7971 19.2584 41.9627 19.5271 41.9771 19.8947C42.0059 20.4603 41.8763 21.0047 41.7251 21.542C41.43 22.6308 41.0052 23.6842 40.5877 24.7306C40.5573 24.799 40.5332 24.87 40.5157 24.9427C40.4797 25.1477 40.6021 25.282 40.8109 25.2325C40.9397 25.2041 41.0588 25.1432 41.1564 25.0558C41.4812 24.7593 41.7866 24.4428 42.0707 24.1084C42.9921 22.9489 43.5321 21.6127 43.8488 20.1775C43.9064 19.923 43.9496 19.6614 44 19.4069V18.1838ZM34.4902 9.47369C33.5615 6.94973 32.6329 4.42341 31.7042 1.89474C31.5602 1.49175 31.4018 1.09584 31.2507 0.699922C31.1715 0.494894 31.0203 0.360566 30.7899 0.360566C30.2428 0.353496 29.6957 0.346426 29.1414 0.353496C28.9614 0.353496 28.875 0.494894 28.911 0.671642C28.9457 0.818522 28.9914 0.962673 29.0478 1.10291C30.4588 4.53181 31.877 7.96072 33.3024 11.3896C33.4247 11.6795 33.4535 11.9269 33.3168 12.2239C33.0792 12.74 32.892 13.2844 32.6473 13.8005C32.4313 14.26 32.0713 14.6064 31.553 14.7408C31.1915 14.8335 30.8156 14.8599 30.4444 14.8185C30.2644 14.8044 30.0844 14.762 29.9044 14.7478C29.6597 14.7337 29.5373 14.8397 29.5301 15.0872C29.5229 15.3229 29.5229 15.5562 29.5301 15.7871C29.5373 16.176 29.6741 16.3527 30.0628 16.4163C30.464 16.4948 30.8708 16.5421 31.2794 16.5577C32.5105 16.586 33.4895 16.0982 34.123 15.0448C34.378 14.6288 34.5995 14.1938 34.7853 13.7439C36.4915 9.5161 38.1856 5.28358 39.8678 1.04635C39.9203 0.921178 39.9589 0.790809 39.983 0.657502C40.0118 0.459545 39.9182 0.346426 39.7166 0.346426C39.2415 0.339356 38.7592 0.346426 38.284 0.346426C38.1631 0.338116 38.0428 0.369799 37.9424 0.436428C37.8419 0.503056 37.767 0.600793 37.7297 0.714061C37.6937 0.81304 37.6505 0.904949 37.6145 1.00393L35.1093 8.07384C34.9293 8.58288 34.7421 9.09898 34.555 9.64336C34.5262 9.56559 34.5118 9.52317 34.4902 9.47369Z" fill="#212121"/>
</svg>
