<svg width="60" height="23" viewBox="0 0 60 23" fill="none" xmlns="http://www.w3.org/2000/svg">
<path d="M60 5.1121L52.1684 23H49.746L52.6559 16.7403L47.4999 5.11019H50.0479L53.779 14.0244H53.8277L57.4407 5.11019L60 5.1121ZM27.4625 10.6435V17.8903H25.0008V0.00236999H31.5142C33.0604 -0.0409561 34.5661 0.511086 35.7328 1.54909C36.8859 2.51699 37.5196 3.88546 37.5009 5.33251C37.5088 6.06074 37.3536 6.78117 37.0472 7.43862C36.7407 8.09607 36.2911 8.6731 35.7328 9.12552C34.6004 10.1433 33.1942 10.6435 31.5142 10.6435H27.4625ZM27.4532 2.20841V8.44704H31.5742C32.4714 8.47993 33.3451 8.15008 34.006 7.52897C34.6416 6.95015 34.9922 6.1605 34.9922 5.3421C34.9922 4.51411 34.6398 3.72446 34.006 3.15523C33.6824 2.84032 33.3007 2.59428 32.8833 2.43142C32.4658 2.26855 32.0209 2.1921 31.5742 2.20649L27.4532 2.20841ZM42.4319 5.1121C43.9938 5.1121 45.235 5.56059 46.1424 6.44991C47.0499 7.33923 47.4999 8.55628 47.4999 10.103V17.4993H45.4693V15.8318H45.3812C44.5019 17.2003 43.3394 17.8884 41.8845 17.8884C40.6339 17.8884 39.5989 17.4993 38.759 16.7096C38.3537 16.3429 38.0311 15.8906 37.8136 15.384C37.5961 14.8773 37.4887 14.3285 37.499 13.7753C37.499 12.5371 37.9377 11.5501 38.8265 10.8102C39.7058 10.0819 40.887 9.71201 42.3607 9.71201C43.6206 9.71201 44.6556 9.96117 45.4656 10.4499V9.93051C45.4682 9.55346 45.3919 9.18021 45.2419 8.83576C45.0918 8.49132 44.8715 8.18365 44.5956 7.93338C44.0399 7.40165 43.3056 7.10864 42.5444 7.11498C41.3632 7.11498 40.4258 7.64397 39.7321 8.70195L37.8665 7.46381C38.8921 5.896 40.4145 5.10827 42.4263 5.10827L42.4319 5.1121ZM39.6889 13.827C39.6847 14.111 39.7462 14.3921 39.8684 14.6472C39.9906 14.9023 40.17 15.1243 40.392 15.2952C40.8608 15.6842 41.4476 15.8951 42.042 15.8836C42.9307 15.8836 43.7894 15.5041 44.425 14.8352C45.0981 14.1969 45.4806 13.298 45.4806 12.3589C44.8169 11.7992 43.8981 11.5194 42.7169 11.5194C41.847 11.5194 41.1345 11.7398 40.5589 12.1787C39.9833 12.6272 39.6889 13.1677 39.6889 13.8251V13.827ZM10.2076 0.00236999C12.732 -0.0287537 15.1731 0.924598 17.0342 2.6684L14.1243 5.58359C13.0613 4.57545 11.6573 4.02788 10.2076 4.05604C8.94244 4.06237 7.71065 4.47147 6.68345 5.22646C5.65624 5.98146 4.88465 7.04484 4.47594 8.26879C4.04649 9.53644 4.04649 10.9149 4.47594 12.1825C4.88465 13.4065 5.65624 14.4699 6.68345 15.2249C7.71065 15.9799 8.94244 16.389 10.2076 16.3953C11.5838 16.3953 12.7669 16.0465 13.6837 15.4274C14.2112 15.0763 14.6632 14.6191 15.0123 14.0836C15.3614 13.5482 15.6002 12.9457 15.7142 12.3129H10.2057V8.37995H19.8241C19.9422 9.06802 20.0003 9.75801 20.0003 10.4557C20.0003 13.5702 18.8866 16.2056 16.9629 17.9823C15.2736 19.5405 12.96 20.447 10.2057 20.447C8.32574 20.4568 6.47955 19.9364 4.87024 18.9429C3.26094 17.9494 1.95088 16.5214 1.0842 14.816C0.371628 13.3948 0 11.8207 0 10.2238C0 8.62677 0.371628 7.05269 1.0842 5.63151C1.94984 3.9277 3.2581 2.50073 4.86527 1.50733C6.47244 0.513942 8.31635 -0.00744062 10.1945 0.000454419L10.2076 0.00236999Z" fill="#212121"/>
</svg>
