<svg width="19" height="19" viewBox="0 0 19 19" fill="none" xmlns="http://www.w3.org/2000/svg">
<path d="M17.7101 17.0623L14.31 13.6539C15.407 12.2487 16.0023 10.5136 16.0001 8.72728C16.0001 7.13644 15.5309 5.58132 14.6518 4.25858C13.7728 2.93585 12.5233 1.9049 11.0615 1.29611C9.59969 0.687323 7.99116 0.528036 6.4393 0.838394C4.88745 1.14875 3.46198 1.91481 2.34316 3.03971C1.22433 4.1646 0.462405 5.59781 0.153722 7.15808C-0.154961 8.71835 0.00346626 10.3356 0.608969 11.8054C1.21447 13.2751 2.23986 14.5313 3.55545 15.4151C4.87105 16.299 6.41777 16.7707 8.00003 16.7707C9.77669 16.7729 11.5025 16.1745 12.9 15.0715L16.2901 18.49C16.383 18.5842 16.4936 18.659 16.6155 18.7101C16.7373 18.7611 16.868 18.7874 17.0001 18.7874C17.1321 18.7874 17.2628 18.7611 17.3846 18.7101C17.5065 18.659 17.6171 18.5842 17.7101 18.49C17.8038 18.3965 17.8782 18.2853 17.929 18.1628C17.9797 18.0403 18.0059 17.9089 18.0059 17.7761C18.0059 17.6434 17.9797 17.512 17.929 17.3895C17.8782 17.267 17.8038 17.1558 17.7101 17.0623ZM2.00001 8.72728C2.00001 7.53414 2.35191 6.36781 3.0112 5.37576C3.67049 4.3837 4.60756 3.61049 5.70392 3.1539C6.80028 2.69731 8.00669 2.57785 9.17058 2.81061C10.3345 3.04338 11.4036 3.61793 12.2427 4.4616C13.0818 5.30527 13.6532 6.38017 13.8848 7.55038C14.1163 8.72058 13.9975 9.93353 13.5433 11.0358C13.0892 12.1382 12.3202 13.0803 11.3335 13.7432C10.3468 14.406 9.18672 14.7599 8.00003 14.7599C6.40873 14.7599 4.8826 14.1243 3.75738 12.993C2.63215 11.8616 2.00001 10.3272 2.00001 8.72728Z" fill="black"/>
</svg>
