<svg width="61" height="25" viewBox="0 0 61 25" fill="none" xmlns="http://www.w3.org/2000/svg">
<path d="M11.1299 3.2166C10.4161 4.06357 9.27414 4.72973 8.13215 4.63456C7.9894 3.49258 8.55088 2.27446 9.20752 1.53217C9.92126 0.66616 11.1679 0.0475828 12.1862 0C12.3004 1.18005 11.8341 2.35059 11.1299 3.2166ZM12.1672 4.85344C10.5113 4.75828 9.09332 5.79558 8.31296 5.79558C7.51357 5.79558 6.31449 4.90103 5.0012 4.92958C3.29774 4.95813 1.71799 5.9193 0.851983 7.45147C-0.93713 10.5253 0.385671 15.0647 2.11768 17.5676C2.96466 18.8047 3.97341 20.1656 5.30573 20.118C6.57143 20.0704 7.06629 19.2996 8.58894 19.2996C10.1211 19.2996 10.5684 20.118 11.9007 20.099C13.2806 20.0704 14.1466 18.8618 14.9936 17.6247C15.9548 16.2162 16.3545 14.8553 16.3735 14.7792C16.3449 14.7507 13.7089 13.7419 13.6803 10.6966C13.6518 8.14617 15.7644 6.93757 15.8596 6.86144C14.67 5.09136 12.8143 4.90103 12.1672 4.85344ZM21.7218 1.40845V19.9562H24.6053V13.6182H28.5927C32.2376 13.6182 34.788 11.1153 34.788 7.49905C34.788 3.88276 32.2757 1.40845 28.6879 1.40845H21.7218ZM24.6053 3.83517H27.9266C30.4294 3.83517 31.8569 5.16749 31.8569 7.50856C31.8569 9.84964 30.4294 11.201 27.9171 11.201H24.6053V3.83517ZM40.0412 20.099C41.8493 20.099 43.5242 19.1854 44.2856 17.7293H44.3427V19.9562H47.0073V10.7252C47.0073 8.05101 44.8661 6.319 41.5733 6.319C38.5185 6.319 36.2536 8.07004 36.1679 10.4682H38.7659C38.9848 9.32623 40.0412 8.57442 41.4877 8.57442C43.2482 8.57442 44.238 9.39284 44.238 10.906V11.9338L40.6407 12.1526C37.3004 12.3525 35.4923 13.7229 35.4923 16.102C35.5018 18.5002 37.367 20.099 40.0412 20.099ZM40.8215 17.9006C39.2894 17.9006 38.3092 17.1584 38.3092 16.0354C38.3092 14.8649 39.2513 14.1892 41.0499 14.0845L44.2475 13.8847V14.9315C44.2475 16.6635 42.7724 17.9006 40.8215 17.9006ZM50.576 25C53.3834 25 54.7062 23.9246 55.8577 20.6795L60.911 6.49981H57.9799L54.592 17.4534H54.5349L51.147 6.49981H48.1398L53.0122 20.0038L52.7458 20.8222C52.308 22.2116 51.5943 22.7541 50.319 22.7541C50.0907 22.7541 49.6529 22.7255 49.4721 22.7065V24.9334C49.6434 24.9714 50.3571 25 50.576 25Z" fill="#212121"/>
</svg>
