<svg width="46" height="31" viewBox="0 0 46 31" fill="none" xmlns="http://www.w3.org/2000/svg">
<path opacity="0.5" d="M30.1306 30.5438C27.1101 30.5443 24.1573 29.649 21.6456 27.9713C19.1339 26.2936 17.1761 23.9087 16.0198 21.1183C14.8635 18.3279 14.5606 15.2573 15.1495 12.2947C15.7383 9.33219 17.1924 6.61078 19.3279 4.47465C21.4634 2.33852 24.1844 0.883606 27.1467 0.293896C30.1091 -0.295815 33.1798 0.00616277 35.9706 1.16164C38.7613 2.31712 41.1468 4.27421 42.8252 6.78541C44.5037 9.29661 45.3998 12.2491 45.4003 15.2696V15.2719C45.3961 19.3206 43.786 23.2023 40.9234 26.0653C38.0608 28.9284 34.1793 30.539 30.1306 30.5438Z" fill="#212121"/>
<path d="M15.2719 30.5438C12.2514 30.5438 9.29875 29.6481 6.7873 27.97C4.27585 26.2919 2.31841 23.9068 1.16251 21.1162C0.0066171 18.3256 -0.295818 15.255 0.293452 12.2925C0.882722 9.33005 2.33723 6.60886 4.47305 4.47305C6.60886 2.33723 9.33006 0.882722 12.2925 0.293452C15.255 -0.295818 18.3256 0.0066175 21.1162 1.16251C23.9068 2.31841 26.2919 4.27584 27.97 6.7873C29.6481 9.29875 30.5438 12.2514 30.5438 15.2719C30.5396 19.321 28.9293 23.203 26.0661 26.0661C23.203 28.9293 19.321 30.5396 15.2719 30.5438Z" fill="#212121"/>
</svg>
