<svg width="24" height="23" viewBox="0 0 24 23" fill="none" xmlns="http://www.w3.org/2000/svg">
<path d="M23.4193 5.05963C23.047 4.19274 22.51 3.40716 21.8386 2.74689C21.1667 2.08464 20.3745 1.55836 19.505 1.19667C18.6035 0.820134 17.6365 0.627399 16.6602 0.629658C15.2906 0.629658 13.9544 1.00674 12.7931 1.719C12.5153 1.88938 12.2514 2.07652 12.0014 2.28043C11.7513 2.07652 11.4874 1.88938 11.2096 1.719C10.0484 1.00674 8.71211 0.629658 7.34251 0.629658C6.35628 0.629658 5.40062 0.819594 4.49774 1.19667C3.62542 1.55979 2.83921 2.08211 2.16414 2.74689C1.49183 3.40642 0.95477 4.19218 0.5834 5.05963C0.197245 5.96183 0 6.91989 0 7.90588C0 8.83601 0.188911 9.80524 0.563954 10.7912C0.877878 11.6152 1.32793 12.4699 1.903 13.333C2.81421 14.6989 4.06713 16.1234 5.62287 17.5675C8.20094 19.9612 10.754 21.6148 10.8624 21.6818L11.5208 22.1064C11.8125 22.2935 12.1875 22.2935 12.4792 22.1064L13.1376 21.6818C13.246 21.612 15.7963 19.9612 18.3771 17.5675C19.9328 16.1234 21.1858 14.6989 22.097 13.333C22.672 12.4699 23.1249 11.6152 23.436 10.7912C23.8111 9.80524 24 8.83601 24 7.90588C24.0028 6.91989 23.8055 5.96183 23.4193 5.05963ZM12.0014 19.897C12.0014 19.897 2.11135 13.5257 2.11135 7.90588C2.11135 5.05963 4.45329 2.75247 7.34251 2.75247C9.3733 2.75247 11.1346 3.89209 12.0014 5.55682C12.8681 3.89209 14.6295 2.75247 16.6602 2.75247C19.5495 2.75247 21.8914 5.05963 21.8914 7.90588C21.8914 13.5257 12.0014 19.897 12.0014 19.897Z" fill="black"/>
</svg>
