<svg width="14" height="18" viewBox="0 0 14 18" fill="none" xmlns="http://www.w3.org/2000/svg">
<path d="M7.35668 0C3.65641 0 0 2.46665 0 6.45888C0 8.99765 1.42806 10.4401 2.29355 10.4401C2.65071 10.4401 2.85612 9.44482 2.85612 9.16382C2.85612 8.82859 2.00159 8.11427 2.00159 6.71852C2.00159 3.81913 4.2086 1.76329 7.06472 1.76329C9.52041 1.76329 11.3379 3.15904 11.3379 5.72321C11.3379 7.63825 10.57 11.23 8.08138 11.23C7.18358 11.23 6.41502 10.5809 6.41502 9.65081C6.41502 8.28737 7.36706 6.96778 7.36706 5.56107C7.36706 3.17405 3.98068 3.60679 3.98068 6.49176C3.98068 7.09761 4.05627 7.76807 4.32688 8.32026C3.82893 10.4626 2.81227 13.654 2.81227 15.861C2.81227 16.5424 2.90978 17.2135 2.97441 17.8949C3.09673 18.0322 3.03557 18.0178 3.22309 17.9491C5.04062 15.4606 4.976 14.9742 5.79822 11.7176C6.24192 12.5617 7.38841 13.0158 8.29718 13.0158C12.1267 13.0158 13.8473 9.28326 13.8473 5.91881C13.8473 2.33798 10.7529 0.00115399 7.3561 0.00115399L7.35668 0Z" fill="black"/>
</svg>
