<svg width="54" height="14" viewBox="0 0 54 14" fill="none" xmlns="http://www.w3.org/2000/svg">
<path d="M29.3625 2.24317C31.5495 2.40793 33.246 3.06031 34.659 3.76835V0.851585C34.659 0.851585 31.8307 0.145773 29.169 0.0322197C19.8855 -0.37969 17.2553 3.22507 17.2553 6.99905C17.2553 10.773 19.8877 14.3778 29.169 13.9681C31.8307 13.8479 34.659 13.1443 34.659 13.1443V10.2298C33.2663 10.9155 31.5495 11.5902 29.3625 11.7505C25.5825 12.0355 23.31 10.2142 23.31 6.99905C23.31 3.78171 25.5825 1.96485 29.3625 2.2454V2.24317ZM46.6538 11.4232C46.4938 11.4497 46.3321 11.4645 46.17 11.4677H42.12V7.83623H46.17C46.2983 7.83623 46.539 7.8585 46.6538 7.88076C47.06 7.96962 47.423 8.19401 47.6819 8.5163C47.9408 8.83858 48.0799 9.23916 48.0758 9.65086C48.0812 10.0631 47.9427 10.4647 47.6837 10.7876C47.4246 11.1105 47.0608 11.335 46.6538 11.4232ZM42.12 2.43465H45.792C45.9247 2.43465 46.1182 2.45024 46.1902 2.4636C46.5868 2.52286 46.9482 2.72256 47.2073 3.02558C47.4663 3.32861 47.6054 3.71438 47.5988 4.11123C47.6054 4.50783 47.4662 4.89331 47.2071 5.19597C46.948 5.49863 46.5867 5.69788 46.1902 5.75665C46.0574 5.7738 45.9237 5.78346 45.7897 5.78559H42.1223V2.43688L42.12 2.43465ZM49.9927 6.85433V6.7764C52.047 6.48027 53.1765 5.15993 53.1765 3.61472C53.1765 1.64868 51.525 0.515378 49.284 0.404051C49.1107 0.397371 48.8295 0.381785 48.6 0.381785H36.603V13.6208H49.5518C52.0942 13.6208 54 12.2759 54 10.1763C54 8.23923 52.263 7.01019 49.9927 6.85655V6.85433ZM9.79875 8.36837C9.79875 10.3233 8.469 11.775 6.05025 11.775C3.987 11.775 1.962 11.1694 0 10.2298V13.1443C0 13.1443 3.1545 13.9971 7.17975 13.9971C13.8645 13.9971 15.813 11.4922 15.813 8.36615V0.37956H9.7965V8.36615L9.79875 8.36837Z" fill="#212121"/>
</svg>
