<svg width="22" height="25" viewBox="0 0 22 25" fill="none" xmlns="http://www.w3.org/2000/svg">
<path d="M1.89035 10.3004C1.9346 9.74606 2.18488 9.22885 2.59135 8.85173C2.99782 8.47461 3.53066 8.26527 4.08375 8.26538H17.3475C17.9006 8.26527 18.4335 8.47461 18.8399 8.85173C19.2464 9.22885 19.4967 9.74606 19.5409 10.3004L20.4242 21.3601C20.4485 21.6644 20.4099 21.9706 20.3107 22.2592C20.2116 22.5478 20.0541 22.8126 19.8482 23.037C19.6422 23.2614 19.3923 23.4405 19.1141 23.5631C18.836 23.6856 18.5356 23.7489 18.2319 23.749H3.19935C2.89566 23.7489 2.59528 23.6856 2.31713 23.5631C2.03897 23.4405 1.78905 23.2614 1.58312 23.037C1.37718 22.8126 1.21968 22.5478 1.12054 22.2592C1.0214 21.9706 0.982757 21.6644 1.00705 21.3601L1.89035 10.3004V10.3004Z" stroke="black" stroke-width="2" stroke-linecap="round" stroke-linejoin="round"/>
<path d="M15.1155 11.5834V6.05352C15.1155 4.88023 14.6519 3.755 13.8267 2.92536C13.0016 2.09572 11.8824 1.62964 10.7155 1.62964C9.5485 1.62964 8.42933 2.09572 7.60417 2.92536C6.779 3.755 6.31543 4.88023 6.31543 6.05352V11.5834" stroke="black" stroke-width="2" stroke-linecap="round" stroke-linejoin="round"/>
</svg>
