<svg width="46" height="13" viewBox="0 0 46 13" fill="none" xmlns="http://www.w3.org/2000/svg">
<path d="M33.4393 0.532498C32.3703 0.173276 31.2402 -0.00698424 30.1025 0.000206968C26.423 0.000206968 23.8244 1.70948 23.806 4.16311C23.783 5.96569 25.6527 6.9815 27.0669 7.58377C28.518 8.20301 29.0032 8.59322 28.9986 9.14672C28.9895 9.98863 27.8396 10.3704 26.7703 10.3704C25.3008 10.3704 24.4982 10.1816 23.2633 9.7087L22.8057 9.51147L22.2837 12.3362C23.1782 12.6798 24.7903 12.9746 26.4552 13C30.3669 13 32.9242 11.3013 32.9541 8.69077C32.9862 7.25083 31.9744 6.16291 29.8449 5.26374C28.5502 4.68056 27.7476 4.29035 27.7476 3.69868C27.7476 3.17487 28.4352 2.61501 29.8725 2.61501C30.8291 2.59367 31.7797 2.75917 32.662 3.10065L33.0069 3.24273L33.529 0.513412L33.4393 0.532498ZM42.9875 0.22924H40.1129C39.2183 0.22924 38.5445 0.456154 38.1536 1.27474L32.6252 12.824H36.5369L37.3188 10.9302L42.0929 10.9345C42.2056 11.3777 42.5505 12.824 42.5505 12.824H46L42.9875 0.22924ZM18.5145 0.123206H22.2423L19.9104 12.7243H16.1873L18.5145 0.118965V0.123206ZM9.05144 7.06845L9.43778 8.81801L13.0804 0.22924H17.0289L11.1625 12.807H7.22322L4.0037 2.15694C3.95156 1.98133 3.8291 1.83051 3.66105 1.73493C2.50065 1.18214 1.27112 0.762651 0 0.485842L0.0505923 0.220756H6.05039C6.86447 0.250446 7.51987 0.485842 7.73834 1.28746L9.04914 7.07481V7.06845H9.05144ZM38.3881 8.35358L39.8737 4.829C39.8553 4.86718 40.1796 4.10161 40.3681 3.6287L40.6234 4.71661L41.4858 8.35146H38.3858V8.35358H38.3881Z" fill="black"/>
</svg>
